<svg width="24" height="25" viewBox="0 0 24 25" fill="none" xmlns="http://www.w3.org/2000/svg">
<mask id="mask0_12_274" style="mask-type:luminance" maskUnits="userSpaceOnUse" x="1" y="3" width="22" height="19">
<path d="M12 20.5H3.5C3.10218 20.5 2.72064 20.342 2.43934 20.0607C2.15804 19.7794 2 19.3978 2 19V6C2 5.60218 2.15804 5.22064 2.43934 4.93934C2.72064 4.65804 3.10218 4.5 3.5 4.5H20.5C20.8978 4.5 21.2794 4.65804 21.5607 4.93934C21.842 5.22064 22 5.60218 22 6V12.0295" stroke="white" stroke-width="1.5" stroke-linecap="round" stroke-linejoin="round"/>
<path d="M2 6C2 5.60218 2.15804 5.22064 2.43934 4.93934C2.72064 4.65804 3.10218 4.5 3.5 4.5H20.5C20.8978 4.5 21.2794 4.65804 21.5607 4.93934C21.842 5.22064 22 5.60218 22 6V10.5H2V6Z" stroke="white" stroke-width="1.5"/>
<path d="M4 7.5C4 6.94772 4.44772 6.5 5 6.5C5.55228 6.5 6 6.94772 6 7.5C6 8.05228 5.55228 8.5 5 8.5C4.44772 8.5 4 8.05228 4 7.5Z" fill="white"/>
<path d="M7 7.5C7 6.94772 7.44772 6.5 8 6.5C8.55228 6.5 9 6.94772 9 7.5C9 8.05228 8.55228 8.5 8 8.5C7.44772 8.5 7 8.05228 7 7.5Z" fill="white"/>
<path d="M18.5 19C19.3284 19 20 18.3284 20 17.5C20 16.6716 19.3284 16 18.5 16C17.6716 16 17 16.6716 17 17.5C17 18.3284 17.6716 19 18.5 19Z" stroke="#919BA0" stroke-width="1.5"/>
<path d="M18.4998 21V19M18.4998 16V14M15.4688 19.25L17.2008 18.25M19.7987 16.75L21.5308 15.75M15.4688 15.75L17.2008 16.75M19.7987 18.25L21.5308 19.25" stroke="#919BA0" stroke-width="1.5" stroke-linecap="round" stroke-linejoin="round"/>
</mask>
<g mask="url(#mask0_12_274)">
<path d="M0 0.5H24V24.5H0V0.5Z" fill="white"/>
</g>
</svg>
