<svg width="24" height="24" viewBox="0 0 24 24" fill="none" xmlns="http://www.w3.org/2000/svg">
<path d="M8.25 15.5C8.25 15.6989 8.32902 15.8897 8.46967 16.0303C8.61032 16.171 8.80109 16.25 9 16.25C9.19891 16.25 9.38968 16.171 9.53033 16.0303C9.67098 15.8897 9.75 15.6989 9.75 15.5H8.25ZM11.25 10.425C11.25 10.6239 11.329 10.8147 11.4697 10.9553C11.6103 11.096 11.8011 11.175 12 11.175C12.1989 11.175 12.3897 11.096 12.5303 10.9553C12.671 10.8147 12.75 10.6239 12.75 10.425H11.25ZM5.25 10.425C5.25 10.6239 5.32902 10.8147 5.46967 10.9553C5.61032 11.096 5.80109 11.175 6 11.175C6.19891 11.175 6.38968 11.096 6.53033 10.9553C6.67098 10.8147 6.75 10.6239 6.75 10.425H5.25ZM7 14.75C6.80109 14.75 6.61032 14.829 6.46967 14.9697C6.32902 15.1103 6.25 15.3011 6.25 15.5C6.25 15.6989 6.32902 15.8897 6.46967 16.0303C6.61032 16.171 6.80109 16.25 7 16.25V14.75ZM11 16.25C11.1989 16.25 11.3897 16.171 11.5303 16.0303C11.671 15.8897 11.75 15.6989 11.75 15.5C11.75 15.3011 11.671 15.1103 11.5303 14.9697C11.3897 14.829 11.1989 14.75 11 14.75V16.25ZM7.925 9.25H9V7.75H7.925V9.25ZM9 9.25H10.075V7.75H9V9.25ZM9.75 15.5V8.5H8.25V15.5H9.75ZM10.075 9.25C10.53 9.25 10.801 9.251 10.997 9.276C11.174 9.298 11.183 9.328 11.167 9.313L12.162 8.192C11.862 7.924 11.511 7.828 11.182 7.787C10.872 7.749 10.491 7.75 10.075 7.75V9.25ZM12.75 10.425C12.75 10.009 12.751 9.628 12.713 9.318C12.672 8.989 12.576 8.638 12.308 8.338L11.187 9.334C11.172 9.317 11.202 9.326 11.224 9.504C11.249 9.699 11.25 9.97 11.25 10.425H12.75ZM11.167 9.313C11.174 9.31929 11.1797 9.32596 11.186 9.333L12.308 8.338C12.2623 8.28648 12.2135 8.23773 12.162 8.192L11.167 9.313ZM7.925 7.75C7.509 7.75 7.128 7.749 6.818 7.787C6.489 7.828 6.138 7.924 5.838 8.192L6.834 9.313C6.817 9.328 6.826 9.298 7.004 9.276C7.199 9.251 7.47 9.25 7.925 9.25V7.75ZM6.75 10.425C6.75 9.97 6.751 9.699 6.776 9.503C6.798 9.326 6.828 9.317 6.813 9.333L5.692 8.338C5.424 8.638 5.328 8.989 5.287 9.318C5.249 9.628 5.25 10.009 5.25 10.425H6.75ZM5.838 8.192C5.786 8.238 5.738 8.286 5.692 8.338L6.813 9.333C6.81929 9.32597 6.82597 9.32029 6.833 9.314L5.838 8.192ZM7 16.25H11V14.75H7V16.25Z" fill="white"/>
<path opacity="0.5" d="M12 4H10C6.229 4 4.343 4 3.172 5.172C2 6.343 2 8.229 2 12C2 15.771 2 17.657 3.172 18.828C4.343 20 6.229 20 10 20H12M15 4C18.114 4.01 19.765 4.108 20.828 5.172C22 6.343 22 8.229 22 12C22 15.771 22 17.657 20.828 18.828C19.765 19.892 18.114 19.99 15 20" stroke="white" stroke-width="1.5" stroke-linecap="round"/>
<path d="M15 2V22" stroke="white" stroke-width="1.5" stroke-linecap="round"/>
</svg>
