<svg width="24" height="25" viewBox="0 0 24 25" fill="none" xmlns="http://www.w3.org/2000/svg">
<path opacity="0.5" d="M2 12.704C2 10.415 2 9.271 2.52 8.323C3.038 7.374 3.987 6.786 5.884 5.608L7.884 4.367C9.889 3.122 10.892 2.5 12 2.5C13.108 2.5 14.11 3.122 16.116 4.367L18.116 5.608C20.013 6.786 20.962 7.374 21.481 8.323C22 9.271 22 10.415 22 12.703V14.225C22 18.125 22 20.076 20.828 21.288C19.657 22.5 17.771 22.5 14 22.5H10C6.229 22.5 4.343 22.5 3.172 21.288C2 20.076 2 18.126 2 14.225V12.704Z" stroke="white" stroke-width="1.5"/>
<path d="M12 15.5V18.5" stroke="white" stroke-width="1.5" stroke-linecap="round"/>
</svg>
