<svg width="24" height="25" viewBox="0 0 24 25" fill="none" xmlns="http://www.w3.org/2000/svg">
<path opacity="0.5" d="M3 10.5C3 6.729 3 4.843 4.172 3.672C5.343 2.5 7.229 2.5 11 2.5H13C16.771 2.5 18.657 2.5 19.828 3.672C21 4.843 21 6.729 21 10.5V14.5C21 18.271 21 20.157 19.828 21.328C18.657 22.5 16.771 22.5 13 22.5H11C7.229 22.5 5.343 22.5 4.172 21.328C3 20.157 3 18.271 3 14.5V10.5Z" stroke="white" stroke-width="1.5"/>
<path d="M8 10.5H16M8 14.5H13" stroke="white" stroke-width="1.5" stroke-linecap="round"/>
</svg>
