<svg width="159" height="73" viewBox="0 0 159 73" fill="none" xmlns="http://www.w3.org/2000/svg">
<g clip-path="url(#clip0_12_876)" filter="url(#filter0_d_12_876)">
<path d="M9.0032 11.4812C8.52484 11.0328 8.19866 10.4601 8.0662 9.83607C7.93374 9.21202 8.00101 8.56487 8.25942 7.97705C8.51784 7.38922 8.95572 6.88733 9.51727 6.5353C10.0788 6.18328 10.7386 5.99706 11.4127 6.00036C11.8478 5.99396 12.2796 6.07343 12.6803 6.23369C13.0811 6.39394 13.442 6.63144 13.7399 6.93099C14.3553 7.54598 14.6982 8.36 14.6982 9.2061C14.6982 10.0522 14.3553 10.8662 13.7399 11.4812C13.442 11.7808 13.0811 12.0183 12.6804 12.1786C12.2796 12.3388 11.8478 12.4183 11.4127 12.4119C10.965 12.4205 10.5203 12.3423 10.1059 12.1822C9.69144 12.0221 9.31617 11.7835 9.0032 11.4812ZM13.8221 17.0138V45.3489H8.83893V17.0138H13.8221Z" fill="white"/>
<path d="M45.0064 11.5061C47.9593 12.8863 50.4022 15.076 52.0157 17.7885C53.6397 20.5119 54.452 23.7177 54.4525 27.4058C54.4525 31.0948 53.6403 34.292 52.0157 36.9974C50.404 39.6922 47.9583 41.8573 45.0064 43.2023C41.9578 44.633 38.3528 45.3483 34.1914 45.3481H22.3086V9.30859H34.1915C38.3532 9.30859 41.9582 10.0411 45.0064 11.5061ZM45.4719 37.773C48.0635 35.3089 49.3595 31.8532 49.3599 27.4058C49.3599 22.9252 48.0547 19.4264 45.4445 16.9094C42.834 14.3936 39.083 13.1354 34.1914 13.1349H27.2917V41.4701H34.1914C39.1197 41.4701 42.8799 40.2377 45.4719 37.773Z" fill="white"/>
<path d="M66.4725 44.0049C64.2006 42.8084 62.3386 41.0233 61.1061 38.8602C59.7698 36.4824 59.1006 33.8212 59.1621 31.13C59.1053 28.4495 59.7945 25.8019 61.1608 23.4516C62.4256 21.2916 64.3154 19.5161 66.6093 18.3327C68.9938 17.1607 71.6423 16.5488 74.3304 16.5488C77.0186 16.5488 79.6671 17.1607 82.0515 18.3327C84.3398 19.5115 86.2286 21.2771 87.5002 23.4257C88.8726 25.7831 89.562 28.4406 89.4989 31.13C89.56 33.8339 88.8508 36.5036 87.4454 38.8602C86.1348 41.0293 84.2102 42.8108 81.8872 44.0049C79.5008 45.2234 76.8243 45.8463 74.1115 45.8145C71.4419 45.8487 68.8089 45.225 66.4725 44.0049ZM79.1493 40.4889C80.7516 39.6658 82.072 38.4281 82.9552 36.9211C83.9716 35.1454 84.4722 33.1474 84.4062 31.13C84.4723 29.1156 83.9816 27.1198 82.9825 25.3389C82.1288 23.844 80.8357 22.614 79.2588 21.7969C77.7175 21.0328 76.0028 20.6336 74.262 20.6336C72.5212 20.6336 70.8065 21.0328 69.2653 21.7969C67.7081 22.6128 66.4412 23.8451 65.6236 25.3389C64.6601 27.1303 64.1893 29.1218 64.2547 31.13C64.1863 33.1521 64.6471 35.159 65.5963 36.9728C66.3933 38.4634 67.6418 39.6963 69.1831 40.5148C70.6937 41.2937 72.3904 41.6942 74.1115 41.6782C75.8696 41.6856 77.6017 41.2767 79.1493 40.4889Z" fill="white"/>
<path d="M96.0689 23.4521C97.2469 21.3251 99.0417 19.5586 101.244 18.359C103.555 17.1276 106.174 16.5028 108.828 16.5493C112.515 16.5493 115.554 17.3938 117.945 19.0829C120.365 20.8152 122.046 23.3107 122.682 26.1149H117.315C116.858 24.4653 115.802 23.0196 114.331 22.0301C112.712 20.9909 110.784 20.4657 108.828 20.5307C107.533 20.4855 106.244 20.7099 105.051 21.188C103.859 21.6661 102.793 22.386 101.928 23.2969C100.176 25.1414 99.2997 27.7526 99.2996 31.1305C99.2996 34.5431 100.176 37.1801 101.928 39.0415C102.788 39.9591 103.853 40.6853 105.046 41.1681C106.239 41.6508 107.531 41.8781 108.828 41.8336C110.768 41.9016 112.683 41.3955 114.304 40.386C115.791 39.384 116.857 37.9195 117.315 36.2494H122.682C121.965 39.0198 120.265 41.4744 117.863 43.204C115.454 44.945 112.442 45.8153 108.828 45.815C106.174 45.8618 103.555 45.2369 101.244 44.0053C99.0361 42.8009 97.2404 41.0246 96.0689 38.8865C94.7792 36.4861 94.1394 33.8214 94.207 31.1305C94.1417 28.4646 94.7817 25.8255 96.0689 23.4521Z" fill="white"/>
<path d="M133.744 44.7032C132.037 44.0481 130.545 42.9777 129.418 41.6009C128.36 40.2766 127.749 38.6818 127.666 37.0247H132.813C132.878 37.7119 133.1 38.3775 133.464 38.9756C133.828 39.5737 134.326 40.0901 134.922 40.4891C136.181 41.3859 137.833 41.834 139.877 41.8334C141.775 41.8334 143.272 41.4369 144.368 40.6441C144.878 40.3071 145.294 39.8581 145.58 39.3357C145.866 38.8134 146.014 38.2333 146.01 37.6452C146.033 37.0735 145.879 36.5078 145.568 36.0168C145.257 35.5259 144.802 35.1306 144.258 34.8788C142.531 34.087 140.711 33.4883 138.837 33.0951C136.98 32.6595 135.159 32.0979 133.388 31.4146C131.989 30.8505 130.751 29.9824 129.774 28.881C128.722 27.628 128.187 26.0573 128.268 24.4601C128.262 23.029 128.742 21.6337 129.637 20.4787C130.635 19.2082 131.979 18.2166 133.525 17.609C135.341 16.8766 137.301 16.5154 139.275 16.549C142.596 16.549 145.28 17.3419 147.325 18.9275C149.369 20.5134 150.464 22.6851 150.61 25.4425H145.627C145.597 24.7556 145.413 24.0824 145.088 23.4674C144.762 22.8524 144.302 22.3096 143.738 21.8748C142.588 20.9788 141.046 20.5307 139.111 20.5304C137.321 20.5304 135.898 20.8924 134.839 21.6163C134.344 21.9268 133.939 22.35 133.661 22.8468C133.384 23.3437 133.243 23.8984 133.251 24.4601C133.236 24.8851 133.313 25.3085 133.478 25.7042C133.643 26.0999 133.892 26.4595 134.21 26.761C134.899 27.3951 135.719 27.888 136.619 28.2088C137.938 28.6785 139.281 29.0841 140.644 29.4239C142.431 29.8609 144.187 30.4049 145.901 31.0526C147.245 31.5832 148.437 32.4072 149.378 33.457C150.388 34.6412 150.922 36.125 150.884 37.6452C150.902 39.1419 150.423 40.6063 149.515 41.8334C148.538 43.1242 147.202 44.1351 145.654 44.7548C143.849 45.4887 141.898 45.8501 139.932 45.8147C137.811 45.8473 135.705 45.469 133.744 44.7032Z" fill="white"/>
<path d="M13.7806 59.0348C14.0657 59.2411 14.2888 59.5141 14.4279 59.8268C14.567 60.1395 14.6173 60.481 14.5738 60.8177C14.5303 61.1543 14.3946 61.4744 14.18 61.7464C13.9654 62.0183 13.6794 62.2327 13.3502 62.3683C12.9063 62.5566 12.4233 62.6486 11.9368 62.6375H8.91235V54.9817H11.8205C12.3041 54.969 12.7847 55.0571 13.2281 55.2398C13.5847 55.3869 13.888 55.6293 14.1005 55.9372C14.2954 56.2337 14.3963 56.5768 14.3913 56.9258C14.4078 57.333 14.2696 57.7323 14.0016 58.0517C13.7311 58.355 13.3736 58.5781 12.9722 58.6943C13.2686 58.739 13.5474 58.8564 13.7806 59.0348ZM9.97093 58.2879H11.7507C12.1641 58.3128 12.5731 58.1957 12.9024 57.9583C13.1584 57.7226 13.3048 57.4005 13.3094 57.0628C13.3139 56.7252 13.1762 56.3996 12.9266 56.1578C12.9186 56.1501 12.9105 56.1425 12.9024 56.135C12.5653 55.8955 12.1483 55.7785 11.7274 55.8054H9.97093V58.2879ZM13.0769 61.4623C13.2246 61.3419 13.3412 61.1912 13.4178 61.0218C13.4944 60.8523 13.529 60.6686 13.5189 60.4846C13.528 60.2946 13.4908 60.1052 13.4101 59.931C13.3294 59.7567 13.2075 59.6023 13.0536 59.4796C12.6986 59.2203 12.257 59.0898 11.8089 59.1116H9.97093V61.8136H11.8438C12.286 61.8391 12.7234 61.7145 13.0769 61.4623Z" fill="white"/>
<path d="M21.7185 54.9824L19.078 59.7494V62.6383H18.0194V59.7494L15.3672 54.9824H16.542L18.5429 58.8598L20.5437 54.9824H21.7185Z" fill="white"/>
<path d="M28.848 62.4459C28.4512 62.2862 28.1076 62.0281 27.8534 61.6991C27.6115 61.3763 27.4814 60.9906 27.4812 60.5951H28.6095C28.642 60.9419 28.8099 61.265 29.0807 61.5013C29.4164 61.7666 29.848 61.8985 30.2846 61.8693C30.715 61.8922 31.1393 61.7652 31.477 61.5123C31.618 61.4002 31.7304 61.2595 31.806 61.1007C31.8815 60.9419 31.9181 60.7691 31.9132 60.5951C31.9252 60.3353 31.8339 60.0807 31.6573 59.8811C31.4826 59.6955 31.2631 59.5524 31.0175 59.4638C30.6785 59.3437 30.3329 59.241 29.9821 59.1562C29.5439 59.0546 29.1143 58.9224 28.6968 58.7607C28.3692 58.6248 28.0846 58.411 27.8708 58.1401C27.6258 57.8077 27.5051 57.4077 27.5278 57.0032C27.5204 56.6099 27.6378 56.2236 27.8651 55.8939C28.099 55.5645 28.428 55.3053 28.8131 55.147C29.2547 54.9646 29.7329 54.8746 30.2149 54.8834C30.884 54.8565 31.5427 55.0465 32.0819 55.4216C32.3173 55.5917 32.5121 55.8069 32.6534 56.0529C32.7947 56.299 32.8794 56.5705 32.902 56.8496H31.7387C31.6902 56.5408 31.5146 56.2626 31.2502 56.0752C30.9241 55.8397 30.5202 55.721 30.1101 55.7401C29.7203 55.7241 29.337 55.8389 29.0283 56.0641C28.8888 56.1742 28.7784 56.3134 28.7057 56.4706C28.6331 56.6279 28.6001 56.799 28.6095 56.9704C28.5984 57.2191 28.6878 57.4625 28.8596 57.6513C29.029 57.8288 29.2402 57.9662 29.4762 58.0524C29.7205 58.1439 30.0636 58.2482 30.5056 58.3654C30.9458 58.4738 31.3773 58.6115 31.7969 58.7773C32.1273 58.9163 32.4153 59.1316 32.6344 59.4034C32.8841 59.738 33.0071 60.1424 32.9834 60.5512C32.9838 60.9233 32.8751 61.2882 32.6693 61.6056C32.4439 61.9492 32.1216 62.2269 31.7387 62.4075C31.2881 62.6212 30.7887 62.7267 30.2846 62.715C29.7909 62.7229 29.3011 62.6312 28.848 62.4459Z" fill="white"/>
<path d="M44.7324 54.9824L42.3827 62.6383H41.1961L39.3116 56.4762L37.3573 62.6383L36.1825 62.6492L33.9141 54.9824H35.0425L36.8106 61.4739L38.7649 54.9824H39.9514L41.8126 61.4519L43.5924 54.9824H44.7324Z" fill="white"/>
<path d="M50.6883 60.9366H47.152L46.5006 62.6392H45.3838L48.3152 55.0273H49.5367L52.4565 62.6392H51.3397L50.6883 60.9366ZM50.3858 60.1239L48.9201 56.2574L47.4544 60.1239H50.3858Z" fill="white"/>
<path d="M58.7269 54.9824V55.7952H56.5167V62.6383H55.4582V55.7952H53.2363V54.9824H58.7269Z" fill="white"/>
<path d="M61.0879 54.9824V62.6383H60.0293V54.9824H61.0879Z" fill="white"/>
<path d="M72.06 54.9824V55.7952H69.8497V62.6383H68.7912V55.7952H66.5693V54.9824H72.06Z" fill="white"/>
<path d="M74.4209 55.7946V58.3537H77.3755V59.1776H74.4209V61.8137H77.7245V62.6376H73.3623V54.9707H77.7245V55.7946H74.4209Z" fill="white"/>
<path d="M79.4696 56.7895C79.8124 56.2061 80.3171 55.722 80.9295 55.3892C81.5538 55.0504 82.2628 54.8758 82.9828 54.8838C83.8004 54.8664 84.6055 55.0765 85.2976 55.488C85.9619 55.8969 86.468 56.4981 86.74 57.2015H85.4721C85.2679 56.7629 84.9297 56.3919 84.5008 56.1361C84.0426 55.8781 83.5161 55.7485 82.9828 55.7626C82.4484 55.7547 81.9217 55.8838 81.4589 56.1361C81.0067 56.3874 80.6395 56.755 80.4002 57.1959C80.1475 57.6969 80.0163 58.2447 80.0163 58.7996C80.0163 59.3545 80.1475 59.9024 80.4002 60.4033C80.6394 60.8444 81.0066 61.2121 81.4589 61.4634C81.9218 61.7156 82.4484 61.8446 82.9828 61.8367C83.5153 61.8508 84.0413 61.7233 84.5008 61.4687C84.9303 61.216 85.2689 60.8465 85.4721 60.4089H86.74C86.4665 61.1071 85.9604 61.7026 85.2976 62.1059C84.6042 62.5141 83.7997 62.7221 82.9828 62.7045C82.2636 62.7126 81.555 62.5401 80.9295 62.2047C80.3177 61.8761 79.8128 61.3956 79.4696 60.8153C79.1184 60.1962 78.9346 59.5047 78.9346 58.8024C78.9346 58.1001 79.1183 57.4086 79.4696 56.7895Z" fill="white"/>
<path d="M94.557 54.9824V62.6383H93.4983V59.1674H89.3688V62.6383H88.3103V54.9824H89.3688V58.3435H93.4983V54.9824L94.557 54.9824Z" fill="white"/>
<path d="M102.734 62.6376H101.675L97.4179 56.5415V62.6376H96.3594V54.9707H97.4179L101.675 61.0558V54.9707H102.734V62.6376Z" fill="white"/>
<path d="M106.155 62.2152C105.539 61.8861 105.03 61.4036 104.683 60.8203C104.328 60.2014 104.143 59.5086 104.143 58.8047C104.143 58.1009 104.328 57.4081 104.683 56.7892C105.03 56.206 105.539 55.7236 106.155 55.3942C106.788 55.0664 107.498 54.8945 108.22 54.8945C108.942 54.8945 109.652 55.0664 110.285 55.3942C110.899 55.7217 111.406 56.2025 111.75 56.7838C112.102 57.4058 112.285 58.0999 112.285 58.8048C112.285 59.5098 112.102 60.2038 111.75 60.8258C111.406 61.4072 110.899 61.8879 110.285 62.2152C109.652 62.5432 108.942 62.7151 108.22 62.7151C107.498 62.7151 106.788 62.5432 106.155 62.2152ZM109.744 61.4739C110.2 61.222 110.572 60.8525 110.814 60.4085C111.07 59.9076 111.204 59.3584 111.204 58.802C111.204 58.2457 111.07 57.6965 110.814 57.1956C110.571 56.7551 110.202 56.3879 109.749 56.1357C109.279 55.8907 108.751 55.7622 108.214 55.7622C107.677 55.7622 107.149 55.8907 106.678 56.1357C106.225 56.3879 105.857 56.7551 105.614 57.1956C105.358 57.6965 105.224 58.2457 105.224 58.802C105.224 59.3584 105.358 59.9076 105.614 60.4085C105.856 60.8525 106.228 61.222 106.684 61.4739C107.152 61.7189 107.679 61.8474 108.214 61.8474C108.749 61.8474 109.275 61.7189 109.744 61.4739Z" fill="white"/>
<path d="M114.738 61.8255H117.577V62.6383H113.68V54.9824H114.738L114.738 61.8255Z" fill="white"/>
<path d="M120.322 62.2152C119.705 61.8861 119.196 61.4036 118.85 60.8203C118.495 60.2014 118.309 59.5086 118.309 58.8047C118.309 58.1009 118.495 57.4081 118.85 56.7892C119.197 56.206 119.705 55.7236 120.322 55.3942C120.955 55.0664 121.665 54.8945 122.387 54.8945C123.108 54.8945 123.819 55.0664 124.451 55.3942C125.066 55.7217 125.573 56.2025 125.917 56.7838C126.268 57.4058 126.452 58.0999 126.452 58.8048C126.452 59.5097 126.268 60.2038 125.917 60.8258C125.573 61.4072 125.066 61.8879 124.451 62.2152C123.819 62.5432 123.108 62.7151 122.387 62.7151C121.665 62.7151 120.955 62.5432 120.322 62.2152ZM123.91 61.4739C124.367 61.222 124.738 60.8525 124.981 60.4085C125.237 59.9076 125.37 59.3584 125.37 58.802C125.37 58.2457 125.237 57.6965 124.981 57.1956C124.738 56.7551 124.369 56.3879 123.916 56.1357C123.446 55.8907 122.918 55.7622 122.381 55.7622C121.844 55.7622 121.315 55.8907 120.845 56.1357C120.392 56.3879 120.023 56.7551 119.781 57.1956C119.524 57.6965 119.391 58.2457 119.391 58.802C119.391 59.3584 119.524 59.9076 119.781 60.4085C120.023 60.8525 120.394 61.222 120.851 61.4739C121.319 61.7189 121.846 61.8474 122.381 61.8474C122.916 61.8474 123.442 61.7189 123.91 61.4739Z" fill="white"/>
<path d="M133.99 57.2011C133.781 56.7712 133.441 56.4099 133.013 56.1632C132.563 55.9119 132.047 55.7844 131.524 55.7952C130.989 55.7878 130.461 55.9148 129.995 56.1632C129.539 56.4109 129.167 56.7768 128.924 57.2175C128.668 57.7107 128.535 58.2527 128.535 58.8021C128.535 59.3514 128.668 59.8934 128.924 60.3866C129.168 60.8251 129.54 61.189 129.995 61.4355C130.461 61.684 130.989 61.811 131.524 61.8035C132.243 61.8285 132.944 61.5882 133.479 61.1335C134.006 60.656 134.326 60.0095 134.374 59.321H131.14V58.5082H135.503V59.277C135.445 59.8934 135.23 60.4873 134.874 61.0071C134.523 61.526 134.039 61.9528 133.467 62.2483C132.872 62.5555 132.203 62.7125 131.524 62.7042C130.803 62.7118 130.093 62.5394 129.465 62.2044C128.85 61.8762 128.341 61.3958 127.994 60.8149C127.639 60.197 127.453 59.5051 127.453 58.8021C127.453 58.099 127.639 57.4072 127.994 56.7892C128.34 56.206 128.849 55.7236 129.465 55.3942C130.135 55.0494 130.89 54.8775 131.653 54.8959C132.415 54.9142 133.16 55.1221 133.81 55.4987C134.475 55.9035 134.983 56.5008 135.258 57.2011L133.99 57.2011Z" fill="white"/>
<path d="M137.958 54.9824V62.6383H136.899V54.9824H137.958Z" fill="white"/>
<path d="M140.819 55.7946V58.3537H143.774V59.1776H140.819V61.8137H144.123V62.6376H139.761V54.9707H144.123V55.7946H140.819Z" fill="white"/>
<path d="M146.861 62.4459C146.464 62.2861 146.121 62.0281 145.866 61.699C145.624 61.3762 145.494 60.9905 145.494 60.595H146.622C146.655 60.9418 146.823 61.2649 147.094 61.5013C147.429 61.7665 147.861 61.8984 148.298 61.8693C148.728 61.8922 149.152 61.7651 149.49 61.5122C149.631 61.4001 149.743 61.2594 149.819 61.1006C149.894 60.9419 149.931 60.7691 149.926 60.5951C149.938 60.3352 149.847 60.0806 149.67 59.8811C149.496 59.6954 149.276 59.5523 149.03 59.4638C148.691 59.3437 148.346 59.241 147.995 59.1562C147.557 59.0546 147.127 58.9224 146.71 58.7607C146.382 58.6248 146.098 58.411 145.884 58.1401C145.639 57.8077 145.518 57.4077 145.541 57.0032C145.533 56.61 145.651 56.2236 145.878 55.8939C146.112 55.5645 146.441 55.3053 146.826 55.147C147.268 54.9646 147.746 54.8746 148.228 54.8834C148.897 54.8565 149.556 55.0464 150.095 55.4216C150.33 55.5917 150.525 55.8069 150.666 56.0529C150.808 56.299 150.892 56.5705 150.915 56.8496H149.752C149.703 56.5408 149.528 56.2626 149.263 56.0752C148.937 55.8397 148.533 55.721 148.123 55.7401C147.733 55.7241 147.35 55.8389 147.041 56.0642C146.902 56.1742 146.791 56.3134 146.719 56.4706C146.646 56.6279 146.613 56.799 146.622 56.9704C146.611 57.2191 146.701 57.4626 146.873 57.6514C147.042 57.8289 147.253 57.9662 147.489 58.0524C147.733 58.1439 148.077 58.2482 148.519 58.3654C148.959 58.4738 149.39 58.6115 149.81 58.7773C150.14 58.9163 150.428 59.1316 150.647 59.4034C150.897 59.738 151.02 60.1424 150.996 60.5512C150.997 60.9233 150.888 61.2883 150.682 61.6057C150.457 61.9493 150.135 62.2269 149.752 62.4076C149.301 62.6212 148.802 62.7268 148.297 62.715C147.804 62.7229 147.314 62.6311 146.861 62.4459Z" fill="white"/>
</g>
<defs>
<filter id="filter0_d_12_876" x="0.426667" y="0.951111" width="158.147" height="72.1467" filterUnits="userSpaceOnUse" color-interpolation-filters="sRGB">
<feFlood flood-opacity="0" result="BackgroundImageFix"/>
<feColorMatrix in="SourceAlpha" type="matrix" values="0 0 0 0 0 0 0 0 0 0 0 0 0 0 0 0 0 0 127 0" result="hardAlpha"/>
<feOffset dy="2.52444"/>
<feGaussianBlur stdDeviation="3.78667"/>
<feColorMatrix type="matrix" values="0 0 0 0 0.430512 0 0 0 0 0.430512 0 0 0 0 0.430512 0 0 0 0.36 0"/>
<feBlend mode="normal" in2="BackgroundImageFix" result="effect1_dropShadow_12_876"/>
<feBlend mode="normal" in="SourceGraphic" in2="effect1_dropShadow_12_876" result="shape"/>
</filter>
<clipPath id="clip0_12_876">
<rect width="143" height="57" fill="white" transform="translate(8 6)"/>
</clipPath>
</defs>
</svg>
