<svg width="24" height="25" viewBox="0 0 24 25" fill="none" xmlns="http://www.w3.org/2000/svg">
<path d="M12 15.5C13.6569 15.5 15 14.1569 15 12.5C15 10.8431 13.6569 9.5 12 9.5C10.3431 9.5 9 10.8431 9 12.5C9 14.1569 10.3431 15.5 12 15.5Z" stroke="white" stroke-width="1.5"/>
<path opacity="0.5" d="M13.7655 2.652C13.3985 2.5 12.9325 2.5 12.0005 2.5C11.0685 2.5 10.6025 2.5 10.2355 2.652C9.99263 2.75251 9.772 2.8999 9.58617 3.08572C9.40035 3.27155 9.25296 3.49218 9.15245 3.735C9.06045 3.958 9.02345 4.219 9.00945 4.598C9.00322 4.87199 8.92745 5.1399 8.78926 5.37657C8.65107 5.61324 8.455 5.81091 8.21945 5.951C7.98035 6.08504 7.71109 6.1561 7.43698 6.1575C7.16288 6.1589 6.89291 6.09059 6.65245 5.959C6.31645 5.781 6.07345 5.683 5.83245 5.651C5.30677 5.58187 4.77515 5.72431 4.35445 6.047C4.04045 6.29 3.80645 6.693 3.34045 7.5C2.87445 8.307 2.64045 8.71 2.58945 9.105C2.55509 9.36545 2.57237 9.63012 2.64032 9.88389C2.70826 10.1377 2.82554 10.3756 2.98545 10.584C3.13345 10.776 3.34045 10.937 3.66145 11.139C4.13445 11.436 4.43845 11.942 4.43845 12.5C4.43845 13.058 4.13445 13.564 3.66145 13.86C3.34045 14.063 3.13245 14.224 2.98545 14.416C2.82554 14.6244 2.70826 14.8623 2.64032 15.1161C2.57237 15.3699 2.55509 15.6345 2.58945 15.895C2.64145 16.289 2.87445 16.693 3.33945 17.5C3.80645 18.307 4.03945 18.71 4.35445 18.953C4.56289 19.1129 4.80078 19.2302 5.05456 19.2981C5.30833 19.3661 5.573 19.3834 5.83345 19.349C6.07345 19.317 6.31645 19.219 6.65245 19.041C6.89291 18.9094 7.16288 18.8411 7.43698 18.8425C7.71109 18.8439 7.98035 18.915 8.21945 19.049C8.70245 19.329 8.98945 19.844 9.00945 20.402C9.02345 20.782 9.05945 21.042 9.15245 21.265C9.25296 21.5078 9.40035 21.7284 9.58617 21.9143C9.772 22.1001 9.99263 22.2475 10.2355 22.348C10.6025 22.5 11.0685 22.5 12.0005 22.5C12.9325 22.5 13.3985 22.5 13.7655 22.348C14.0083 22.2475 14.2289 22.1001 14.4147 21.9143C14.6006 21.7284 14.7479 21.5078 14.8484 21.265C14.9404 21.042 14.9775 20.782 14.9915 20.402C15.0115 19.844 15.2985 19.328 15.7815 19.049C16.0206 18.915 16.2898 18.8439 16.5639 18.8425C16.838 18.8411 17.108 18.9094 17.3484 19.041C17.6844 19.219 17.9274 19.317 18.1674 19.349C18.4279 19.3834 18.6926 19.3661 18.9463 19.2981C19.2001 19.2302 19.438 19.1129 19.6465 18.953C19.9615 18.711 20.1944 18.307 20.6604 17.5C21.1264 16.693 21.3604 16.29 21.4114 15.895C21.4458 15.6345 21.4285 15.3699 21.3606 15.1161C21.2926 14.8623 21.1754 14.6244 21.0154 14.416C20.8674 14.224 20.6605 14.063 20.3395 13.861C20.1052 13.7186 19.911 13.519 19.775 13.2809C19.6391 13.0428 19.566 12.7741 19.5625 12.5C19.5625 11.942 19.8665 11.436 20.3395 11.14C20.6605 10.937 20.8684 10.776 21.0154 10.584C21.1754 10.3756 21.2926 10.1377 21.3606 9.88389C21.4285 9.63012 21.4458 9.36545 21.4114 9.105C21.3594 8.711 21.1264 8.307 20.6614 7.5C20.1944 6.693 19.9615 6.29 19.6465 6.047C19.438 5.88709 19.2001 5.76981 18.9463 5.70187C18.6926 5.63392 18.4279 5.61664 18.1674 5.651C17.9274 5.683 17.6845 5.781 17.3475 5.959C17.1071 6.09042 16.8373 6.15862 16.5634 6.15722C16.2895 6.15582 16.0204 6.08486 15.7815 5.951C15.5459 5.81091 15.3498 5.61324 15.2116 5.37657C15.0734 5.1399 14.9977 4.87199 14.9915 4.598C14.9775 4.218 14.9414 3.958 14.8484 3.735C14.7479 3.49218 14.6006 3.27155 14.4147 3.08572C14.2289 2.8999 14.0083 2.75251 13.7655 2.652Z" stroke="white" stroke-width="1.5"/>
</svg>
