<svg width="24" height="24" viewBox="0 0 24 24" fill="none" xmlns="http://www.w3.org/2000/svg">
<path d="M4.72787 16.1372C3.18287 14.5912 2.40987 13.8192 2.12287 12.8162C1.83487 11.8132 2.08087 10.7482 2.57287 8.61925L2.85587 7.39125C3.26887 5.59925 3.47587 4.70325 4.08887 4.08925C4.70287 3.47625 5.59887 3.26925 7.39087 2.85625L8.61887 2.57225C10.7489 2.08125 11.8129 1.83525 12.8159 2.12225C13.8189 2.41025 14.5909 3.18325 16.1359 4.72825L17.9659 6.55825C20.6569 9.24825 21.9999 10.5922 21.9999 12.2622C21.9999 13.9332 20.6559 15.2772 17.9669 17.9662C15.2769 20.6562 13.9329 22.0002 12.2619 22.0002C10.5919 22.0002 9.24687 20.6562 6.55787 17.9672L4.72787 16.1372Z" stroke="white" stroke-width="1.5"/>
<path opacity="0.5" d="M10.021 10.2931C10.802 9.51207 10.802 8.24574 10.021 7.46469C9.23991 6.68364 7.97358 6.68364 7.19253 7.46469C6.41149 8.24574 6.41148 9.51207 7.19253 10.2931C7.97358 11.0742 9.23991 11.0742 10.021 10.2931Z" stroke="white" stroke-width="1.5"/>
<path opacity="0.5" d="M11.542 18.4995L18.521 11.5195" stroke="white" stroke-width="1.5" stroke-linecap="round"/>
</svg>
