<svg width="24" height="24" viewBox="0 0 24 24" fill="none" xmlns="http://www.w3.org/2000/svg">
<path opacity="0.2" d="M7.5 16.5C7.5 17.0933 7.32405 17.6734 6.99441 18.1667C6.66477 18.6601 6.19623 19.0446 5.64805 19.2716C5.09987 19.4987 4.49667 19.5581 3.91473 19.4424C3.33279 19.3266 2.79824 19.0409 2.37868 18.6213C1.95912 18.2018 1.6734 17.6672 1.55765 17.0853C1.44189 16.5033 1.5013 15.9001 1.72836 15.352C1.95543 14.8038 2.33994 14.3352 2.83329 14.0056C3.32664 13.6759 3.90666 13.5 4.5 13.5C5.29565 13.5 6.05871 13.8161 6.62132 14.3787C7.18393 14.9413 7.5 15.7044 7.5 16.5Z" fill="white"/>
<path d="M23.0307 6.96979L20.0307 3.96979C19.89 3.82906 19.6991 3.75 19.5001 3.75C19.3011 3.75 19.1102 3.82906 18.9695 3.96979C18.8287 4.11052 18.7497 4.30139 18.7497 4.50042C18.7497 4.69944 18.8287 4.89031 18.9695 5.03104L20.6898 6.75042H19.5001C14.8754 6.75042 13.7767 9.38667 12.8082 11.7117C11.9288 13.822 11.222 15.517 8.16947 15.7279C7.97792 14.8186 7.45554 14.0127 6.70361 13.4666C5.95168 12.9206 5.02377 12.6731 4.09977 12.7723C3.17577 12.8715 2.32152 13.3102 1.70262 14.0035C1.08372 14.6967 0.744265 15.595 0.750073 16.5243C0.755881 17.4536 1.10653 18.3476 1.73405 19.0331C2.36157 19.7185 3.22124 20.1465 4.14641 20.2342C5.07158 20.3218 5.99632 20.0628 6.74137 19.5073C7.48641 18.9519 7.99868 18.1396 8.17885 17.2279C12.2345 16.9795 13.2732 14.4951 14.192 12.2882C15.1323 10.0317 15.8748 8.25042 19.5001 8.25042H20.6898L18.9695 9.96979C18.8287 10.1105 18.7497 10.3014 18.7497 10.5004C18.7497 10.6994 18.8287 10.8903 18.9695 11.031C19.1102 11.1718 19.3011 11.2508 19.5001 11.2508C19.6991 11.2508 19.89 11.1718 20.0307 11.031L23.0307 8.03104C23.1005 7.96139 23.1558 7.87867 23.1935 7.78762C23.2313 7.69657 23.2507 7.59898 23.2507 7.50042C23.2507 7.40186 23.2313 7.30426 23.1935 7.21321C23.1558 7.12216 23.1005 7.03945 23.0307 6.96979ZM4.5001 18.7504C4.05509 18.7504 3.62007 18.6185 3.25006 18.3712C2.88005 18.124 2.59167 17.7726 2.42137 17.3615C2.25107 16.9503 2.20651 16.4979 2.29333 16.0615C2.38015 15.625 2.59444 15.2241 2.90911 14.9094C3.22378 14.5948 3.62469 14.3805 4.06114 14.2936C4.4976 14.2068 4.95 14.2514 5.36114 14.4217C5.77227 14.592 6.12367 14.8804 6.3709 15.2504C6.61814 15.6204 6.7501 16.0554 6.7501 16.5004C6.7501 17.0972 6.51304 17.6694 6.09109 18.0914C5.66913 18.5134 5.09683 18.7504 4.5001 18.7504Z" fill="white"/>
</svg>
